# xmcd
#
# Track frame offsets: 
#        150
#        20178
#        39155
#        54335
#        66820
#        80145
#        93465
#        105985
#        124875
#        146573
#        163028
#        171855
#        195678
#
# Disc length: 3096 seconds
#
# Revision: 2
# Processed by: cddbd v1.5.2PL0 Copyright (c) Steve Scherf et al.
# Submitted via: ExactAudioCopy v1.0b4
#
DISCID=b00c160d
DTITLE=Leslie West - Dodgin' The Dirt
DYEAR=1993
DGENRE=Blues Rock
TTITLE0=Whiskey Train
TTITLE1=Daddy Are You Angry
TTITLE2=New York State Of Mind
TTITLE3=Sambuca
TTITLE4=Juke Joint Jumpin'
TTITLE5=Easy Street
TTITLE6=One Last Lick
TTITLE7=Cross Cust Saw
TTITLE8=Hang Me Out To Dry
TTITLE9=Wasted Years
TTITLE10=My Friend Sam
TTITLE11=Thunderbird
TTITLE12=Red House
EXTD=
EXTT0=
EXTT1=
EXTT2=
EXTT3=
EXTT4=
EXTT5=
EXTT6=
EXTT7=
EXTT8=
EXTT9=
EXTT10=
EXTT11=
EXTT12=
PLAYORDER=
